<svg width="18" height="22" viewBox="0 0 18 22" fill="none" xmlns="http://www.w3.org/2000/svg">
<path d="M12.7125 9.74588C13.3128 9.22968 13.7942 8.59122 14.1242 7.87385C14.4542 7.15647 14.625 6.37697 14.625 5.58824C14.625 4.10614 14.0324 2.68475 12.9775 1.63676C11.9226 0.588759 10.4918 0 9 0C7.50816 0 6.07742 0.588759 5.02252 1.63676C3.96763 2.68475 3.375 4.10614 3.375 5.58824C3.37499 6.37697 3.54578 7.15647 3.87577 7.87385C4.20576 8.59122 4.68723 9.22968 5.2875 9.74588C3.71266 10.4543 2.37652 11.5984 1.43885 13.0413C0.501182 14.4842 0.00165584 16.1649 0 17.8824C0 18.1788 0.118526 18.4631 0.329505 18.6726C0.540483 18.8822 0.826631 19 1.125 19C1.42337 19 1.70952 18.8822 1.9205 18.6726C2.13147 18.4631 2.25 18.1788 2.25 17.8824C2.25 16.1038 2.96116 14.3982 4.22703 13.1406C5.4929 11.883 7.20979 11.1765 9 11.1765C10.7902 11.1765 12.5071 11.883 13.773 13.1406C15.0388 14.3982 15.75 16.1038 15.75 17.8824C15.75 18.1788 15.8685 18.4631 16.0795 18.6726C16.2905 18.8822 16.5766 19 16.875 19C17.1734 19 17.4595 18.8822 17.6705 18.6726C17.8815 18.4631 18 18.1788 18 17.8824C17.9983 16.1649 17.4988 14.4842 16.5611 13.0413C15.6235 11.5984 14.2873 10.4543 12.7125 9.74588ZM9 8.94118C8.33249 8.94118 7.67997 8.74453 7.12495 8.3761C6.56993 8.00768 6.13735 7.48402 5.88191 6.87135C5.62646 6.25868 5.55962 5.58452 5.68985 4.93411C5.82008 4.2837 6.14151 3.68626 6.61351 3.21735C7.08552 2.74843 7.68688 2.42909 8.34157 2.29972C8.99626 2.17035 9.67486 2.23675 10.2916 2.49052C10.9083 2.7443 11.4354 3.17405 11.8062 3.72544C12.1771 4.27683 12.375 4.92509 12.375 5.58824C12.375 6.47749 12.0194 7.33032 11.3865 7.95912C10.7536 8.58792 9.89511 8.94118 9 8.94118Z" fill="#98969E"/>
<path d="M6.17157 16.5858C5.78105 16.1953 5.78105 15.5621 6.17157 15.1716C6.5621 14.781 7.19526 14.781 7.58579 15.1716L11.8284 19.4142C12.219 19.8047 12.219 20.4379 11.8284 20.8284C11.4379 21.219 10.8047 21.219 10.4142 20.8284L6.17157 16.5858Z" fill="#98969E"/>
<path d="M10.4142 15.1716C10.8047 14.781 11.4379 14.781 11.8284 15.1716C12.219 15.5621 12.219 16.1953 11.8284 16.5858L7.58579 20.8284C7.19526 21.219 6.5621 21.219 6.17157 20.8284C5.78105 20.4379 5.78105 19.8047 6.17157 19.4142L10.4142 15.1716Z" fill="#98969E"/>
</svg>
