<svg width="104" height="32" viewBox="0 0 104 32" fill="none" xmlns="http://www.w3.org/2000/svg">
<path opacity="0.35" fill-rule="evenodd" clip-rule="evenodd" d="M100.712 18.6802L100.614 16.5737C100.614 16.5737 99.4175 15.9303 98.7564 15.6244C98.0956 15.3116 97.4222 15.0255 96.7421 14.7573C95.3768 14.2313 93.9957 13.753 92.5896 13.3577C91.1839 12.9622 89.7625 12.6286 88.3306 12.3554C86.8989 12.081 85.4565 11.869 84.0086 11.7142C83.2849 11.6365 82.5594 11.574 81.8329 11.5272C81.4972 11.5035 81.0931 11.4827 80.7428 11.4668C80.3903 11.4522 80.0327 11.4425 79.6695 11.4386C78.2249 11.4237 76.775 11.4861 75.3227 11.5956C73.8709 11.713 72.416 11.8757 70.9589 12.0652C69.5026 12.2606 68.0425 12.4765 66.5768 12.6952C65.1115 12.9194 63.6404 13.1418 62.1611 13.3449C60.6822 13.5527 59.1944 13.7372 57.6985 13.8833C56.2038 14.0366 54.6981 14.1354 53.1891 14.1899C51.6797 14.2414 50.1654 14.2303 48.6538 14.1513C47.1427 14.0666 45.6341 13.9172 44.1424 13.6701C42.6516 13.4229 41.1707 13.121 39.7245 12.7037C38.2794 12.2873 36.8541 11.8145 35.4796 11.2295C34.1017 10.6557 32.762 10.0051 31.4761 9.27273C32.8658 9.79729 34.2668 10.2738 35.6836 10.6824C36.3926 10.885 37.1055 11.0688 37.8188 11.2451C38.5352 11.4113 39.2514 11.5703 39.9743 11.6976C41.4168 11.9626 42.8668 12.1692 44.3239 12.2908C45.7808 12.4102 47.2405 12.4699 48.7007 12.4649C50.1613 12.4629 51.621 12.398 53.0796 12.2873C54.5389 12.1803 55.9953 12.0176 57.4524 11.8346C58.9093 11.6486 60.3657 11.4282 61.8259 11.204L66.2195 10.5066C67.69 10.2743 69.1683 10.0529 70.6583 9.86713C71.4036 9.774 72.151 9.68782 72.9012 9.61104C73.6522 9.53822 74.4062 9.47927 75.1624 9.43098C75.9191 9.38516 76.6782 9.35422 77.4391 9.33886C78.2005 9.3282 78.9638 9.3396 79.7269 9.36807C80.1069 9.38244 80.4919 9.40349 80.8814 9.43075C81.2728 9.45947 81.6102 9.48498 82.0144 9.53129C82.7685 9.61178 83.5205 9.70813 84.27 9.82056C85.7683 10.0487 87.254 10.3513 88.7188 10.7255C89.4518 10.9108 90.1772 11.1228 90.8991 11.3417C91.617 11.575 92.3316 11.8155 93.0356 12.0835C94.4462 12.6098 95.828 13.2079 97.1557 13.9038C98.486 14.5978 99.7708 15.3532 100.961 16.2787L101.055 16.352L101.05 16.4511L100.946 18.6802L100.829 20.9091L100.712 18.6802Z" fill="#5D30C3"/>
<path fill-rule="evenodd" clip-rule="evenodd" d="M4.09858 20.6604C3.96643 20.3909 3.84631 20.1147 3.73667 19.8344C3.62754 19.5536 3.53374 19.2667 3.44582 18.9776C3.36148 18.6876 3.28684 18.3944 3.22168 18.0984C3.16033 17.8018 3.10461 17.5032 3.06373 17.202C3.03842 17.0518 3.02616 16.9003 3.00902 16.7491C2.99087 16.5979 2.97735 16.4461 2.9712 16.2941C2.94896 15.9899 2.94896 15.6854 2.94513 15.3798C2.95561 15.0756 2.95791 14.7693 2.98653 14.4651C3.00393 14.1595 3.04558 13.8571 3.08186 13.5528C3.12889 13.2514 3.17336 12.9474 3.23676 12.6483C3.29938 12.3489 3.36172 12.0485 3.44378 11.7537C3.51789 11.4561 3.61169 11.1651 3.70549 10.8737C3.79213 10.5792 3.90996 10.2974 4.01168 10.008C4.11978 9.72193 4.24348 9.44251 4.35926 9.15898L4.97674 7.82864L5.55205 8.05125C5.82501 8.15693 6.1647 8.26518 6.48213 8.35498C6.8062 8.44609 7.13436 8.52976 7.46586 8.60193C8.12882 8.74624 8.79846 8.87111 9.47447 8.96016C10.8255 9.14313 12.1933 9.21144 13.5587 9.18662C14.2416 9.17229 14.924 9.13876 15.6046 9.07736C15.945 9.04947 16.2852 9.02105 16.6246 8.97935C16.9645 8.94558 17.3034 8.89875 17.6418 8.85038C18.9954 8.6572 20.3376 8.37956 21.6605 8.02771C22.3221 7.85038 22.9801 7.65975 23.6312 7.44556C23.9585 7.345 24.2815 7.23062 24.6049 7.11624L25.5934 6.7708C26.2544 6.5364 26.9143 6.30098 27.5966 6.07836C28.2727 5.84653 28.9512 5.63722 29.6308 5.4302C30.9933 5.02489 32.3641 4.63798 33.7547 4.31864C35.1424 3.99162 36.5443 3.71295 37.9578 3.49365C39.3703 3.27282 40.7943 3.11086 42.2231 3.01644C43.6515 2.92584 45.0846 2.88362 46.5145 2.92507C47.944 2.96909 49.3709 3.0566 50.7873 3.22216C52.203 3.39078 53.609 3.60931 55.005 3.867C56.4009 4.12289 57.7809 4.44709 59.1528 4.78844C60.5225 5.13798 61.885 5.5062 63.2335 5.91869C64.5814 6.33195 65.9268 6.74675 67.2573 7.20735C68.5914 7.65489 69.9165 8.12878 71.2354 8.61984C68.4879 8.00878 65.7532 7.36727 63.0118 6.78871C61.639 6.50927 60.2701 6.22498 58.8964 5.97627C57.5221 5.73293 56.1456 5.51773 54.7699 5.32427C53.393 5.14029 52.0136 4.99571 50.634 4.90053C49.2538 4.81249 47.8748 4.75927 46.497 4.77078C45.1194 4.77207 43.7435 4.84295 42.3735 4.96604C41.0021 5.08042 39.6358 5.25467 38.2779 5.48905C37.5974 5.59398 36.9211 5.73189 36.2435 5.85907C35.5691 6.00544 34.8928 6.1408 34.2219 6.30867C32.8763 6.62162 31.5396 6.98369 30.2095 7.37444C28.8739 7.77285 27.5749 8.17765 26.2362 8.63775L25.2315 8.97296C24.8906 9.08631 24.5486 9.19584 24.2025 9.29384C23.5143 9.50136 22.8187 9.68433 22.1194 9.85295C20.7203 10.1882 19.3011 10.4451 17.8701 10.6132C16.4398 10.7836 14.9966 10.8614 13.5543 10.8235C12.1123 10.7903 10.6716 10.6587 9.24853 10.4059C8.53724 10.2787 7.82853 10.1283 7.13053 9.92793C6.78115 9.83069 6.43381 9.72091 6.08827 9.60193C5.90155 9.53647 5.5391 9.40015 5.5391 9.40015L5.43322 9.67102C5.30875 9.92971 5.17508 10.1853 5.05674 10.4474C4.94506 10.7115 4.81573 10.9704 4.71785 11.2404C4.61254 11.5078 4.50777 11.7757 4.41983 12.0492C4.32042 12.3194 4.23965 12.595 4.15812 12.8711C4.07608 13.147 4.01168 13.4274 3.9442 13.7074C3.88747 13.9891 3.82484 14.2711 3.78575 14.5564C3.73513 14.8409 3.71035 15.1278 3.67661 15.4149C3.65769 15.7025 3.63341 15.9911 3.63188 16.2803C3.62141 16.5695 3.62702 16.8591 3.63775 17.149C3.64874 17.439 3.6738 17.7284 3.70472 18.018C3.73898 18.3069 3.78293 18.5951 3.83661 18.8822C3.9488 19.4549 4.10113 20.0218 4.29485 20.5775C4.49344 21.1304 4.72961 21.6751 5.03988 22.1818C4.6634 21.7202 4.3636 21.1976 4.09858 20.6604Z" fill="#5D30C3"/>
<path d="M36.7604 26.4313H38.9444C38.9612 26.4498 38.9779 26.4604 38.9779 26.4727C39.0241 27.0629 39.4164 27.3225 39.941 27.4182C40.8006 27.5918 41.69 27.5582 42.534 27.3205C42.6464 27.3016 42.7514 27.2516 42.8364 27.1764C42.9214 27.1009 42.9831 27.0033 43.0144 26.8945C43.0961 26.5558 42.9997 26.3231 42.6557 26.2713C42.1692 26.1947 41.679 26.1435 41.1871 26.1175C40.5326 26.0696 39.8738 26.078 39.2275 25.9844C38.8115 25.9164 38.4108 25.7756 38.0443 25.5689C37.2513 25.1429 36.9995 24.0873 37.3855 23.1835C37.4888 22.9482 37.6445 22.7391 37.8411 22.5722C38.0377 22.4051 38.27 22.2844 38.5205 22.2193C39.0492 22.0525 39.5942 21.9418 40.1464 21.8889C41.3381 21.7953 42.534 21.7558 43.713 22.0218C44.29 22.1507 44.8374 22.3564 45.2256 22.8385C45.4718 23.1642 45.582 23.5711 45.534 23.9751C45.534 24.0353 45.448 24.1393 45.3998 24.1413C44.7053 24.1516 44.011 24.1413 43.3017 24.1413C43.2515 23.7049 42.9535 23.518 42.5822 23.4369C41.6871 23.2333 40.7555 23.2482 39.8675 23.4805C39.7186 23.5296 39.5938 23.6318 39.5171 23.7673C39.4906 23.8224 39.4773 23.8825 39.4782 23.9436C39.4793 24.0045 39.4944 24.0644 39.5228 24.1185C39.5509 24.1727 39.5914 24.2196 39.6411 24.2556C39.6906 24.2916 39.7481 24.3158 39.8086 24.3262C40.1173 24.4047 40.4326 24.4535 40.7507 24.4716C41.5689 24.5195 42.3891 24.5216 43.2053 24.5902C43.585 24.6296 43.9578 24.7198 44.313 24.8582C44.6294 24.9591 44.9035 25.1602 45.0929 25.4305C45.2825 25.7009 45.3771 26.0255 45.362 26.3544C45.3725 27.7465 44.7327 28.4115 43.5096 28.7585C42.511 29.0389 41.4872 29.0327 40.4654 29.0244C39.6728 29.0493 38.8822 28.9309 38.1325 28.6753C37.2766 28.3471 36.7729 27.7653 36.7415 26.8344C36.7409 26.6996 36.7472 26.5651 36.7604 26.4313Z" fill="#5D30C3"/>
<path d="M45.8787 26.4313H48.0627C48.0795 26.4498 48.0962 26.4604 48.0962 26.4727C48.1424 27.0629 48.5347 27.3225 49.0593 27.4182C49.9191 27.5918 50.8083 27.5582 51.6523 27.3205C51.7648 27.3016 51.8697 27.2516 51.9547 27.1764C52.0398 27.1009 52.1014 27.0033 52.1327 26.8945C52.2146 26.5558 52.118 26.3231 51.774 26.2713C51.2875 26.1947 50.7973 26.1435 50.3055 26.1175C49.6509 26.0696 48.9921 26.078 48.3458 25.9844C47.9298 25.9164 47.5291 25.7756 47.1626 25.5689C46.3697 25.1429 46.1178 24.0873 46.5038 23.1835C46.6071 22.9482 46.7628 22.7391 46.9594 22.5722C47.1562 22.4051 47.3885 22.2844 47.6388 22.2193C48.1677 22.0525 48.7125 21.9418 49.2649 21.8889C50.4564 21.7953 51.6523 21.7558 52.8313 22.0218C53.4083 22.1507 53.9559 22.3564 54.344 22.8385C54.5901 23.1642 54.7005 23.5711 54.6525 23.9751C54.6525 24.0353 54.5663 24.1393 54.5181 24.1413C53.8238 24.1516 53.1293 24.1413 52.4202 24.1413C52.3698 23.7049 52.072 23.518 51.7005 23.4369C50.8054 23.2333 49.8738 23.2482 48.9859 23.4805C48.8369 23.5296 48.7121 23.6318 48.6354 23.7673C48.6089 23.8224 48.5956 23.8825 48.5967 23.9436C48.5976 24.0045 48.6129 24.0644 48.6411 24.1185C48.6693 24.1727 48.7099 24.2196 48.7594 24.2556C48.8091 24.2916 48.8664 24.3158 48.9271 24.3262C49.2356 24.4047 49.5511 24.4535 49.869 24.4716C50.6872 24.5195 51.5076 24.5216 52.3236 24.5902C52.7033 24.6296 53.0761 24.7198 53.4313 24.8582C53.7478 24.9591 54.0218 25.1602 54.2113 25.4305C54.4008 25.7009 54.4955 26.0255 54.4804 26.3544C54.4909 27.7465 53.851 28.4115 52.6279 28.7585C51.6293 29.0389 50.6055 29.0327 49.5837 29.0244C48.7911 29.0493 48.0005 28.9309 47.2508 28.6753C46.3949 28.3471 45.8913 27.7653 45.8598 26.8344C45.8592 26.6996 45.8655 26.5651 45.8787 26.4313Z" fill="#5D30C3"/>
<path d="M87.3149 21.9927C87.3821 21.9927 87.4198 21.9927 87.4575 21.9927C89.3165 21.9927 91.1752 21.9927 93.034 21.9927C93.4546 22.002 93.8726 22.0627 94.2781 22.1735C94.9412 22.348 95.3879 22.7513 95.4614 23.4764C95.5348 24.2016 95.216 24.7004 94.6349 25.0722C94.4309 25.1895 94.2209 25.2956 94.0053 25.3902L94.2152 25.492C94.497 25.5967 94.7308 25.7991 94.8731 26.0616C95.0155 26.3242 95.0568 26.6291 94.9894 26.9195C94.9412 27.2333 94.876 27.5429 94.8405 27.8587C94.8048 28.1745 94.788 28.5298 94.7628 28.8811H92.5768C92.6145 28.5776 92.648 28.2847 92.6837 27.9916C92.7089 27.7695 92.7509 27.5471 92.7549 27.3247C92.7723 27.1369 92.7168 26.9496 92.6001 26.8007C92.4833 26.6518 92.3137 26.5524 92.1256 26.5225C92.0214 26.49 91.9137 26.4705 91.8046 26.4644C90.7913 26.4644 89.7759 26.4644 88.7332 26.4644C88.599 27.2582 88.4675 28.0644 88.3387 28.8831H86.2241C86.5806 26.5849 86.9456 24.2993 87.3149 21.9927ZM88.9702 24.9018C90.1409 24.9018 91.2781 24.9018 92.4151 24.9018C92.5862 24.8867 92.7502 24.828 92.8913 24.7315C93.0079 24.6582 93.0977 24.5498 93.1476 24.4224C93.1973 24.2947 93.2046 24.1547 93.1684 24.0229C93.1437 23.8998 93.0773 23.7887 92.9797 23.7085C92.8823 23.6284 92.7601 23.5838 92.6333 23.5824C92.5258 23.5656 92.417 23.5575 92.3082 23.5575H89.1926L88.9702 24.9018Z" fill="#5D30C3"/>
<path d="M36.0072 28.8956C35.3234 28.8956 34.6519 28.8956 33.9806 28.8956C33.8317 28.8956 33.8044 28.8104 33.8169 28.7044C33.8506 28.4115 33.8989 28.1225 33.9303 27.8316C33.9603 27.6405 33.9736 27.4473 33.9701 27.254C33.9763 27.0811 33.9187 26.912 33.8077 26.7784C33.6969 26.6449 33.5405 26.556 33.368 26.5287C33.1322 26.4735 32.8907 26.4447 32.6485 26.4436C31.8218 26.4333 30.9931 26.4436 30.1664 26.4436C29.9965 26.4436 29.9421 26.4935 29.9168 26.6515C29.8099 27.3911 29.684 28.1309 29.5623 28.8811H27.437C27.5357 28.2576 27.6301 27.6529 27.7266 27.042C27.9889 25.4171 28.2532 23.7922 28.507 22.1673C28.5323 22.0156 28.5847 21.9782 28.7294 21.9782C30.5714 21.9782 32.4156 21.9782 34.2576 21.9927C34.6789 22.0027 35.0975 22.0642 35.5038 22.1756C36.1331 22.3376 36.5738 22.7055 36.6723 23.3849C36.7313 23.7156 36.6842 24.0564 36.5375 24.3591C36.3906 24.6616 36.1517 24.9111 35.8541 25.0722C35.6503 25.19 35.4403 25.2969 35.2247 25.3922C35.2604 25.4109 35.2961 25.4316 35.3317 25.4462C36.0786 25.76 36.3387 26.2378 36.2023 27.0316C36.1373 27.4202 36.0681 27.8087 36.0219 28.2015C36.0043 28.4324 35.9993 28.6642 36.0072 28.8956ZM30.1959 24.8769C30.2176 24.8891 30.2408 24.8982 30.2651 24.9038C31.3749 24.9038 32.4848 24.9038 33.5926 24.9038C33.7783 24.8911 33.9576 24.8311 34.1127 24.7293C34.2311 24.6573 34.3218 24.5485 34.3712 24.42C34.4205 24.2915 34.4255 24.1504 34.3855 24.0187C34.3331 23.7611 34.1757 23.628 33.8506 23.5802C33.7656 23.5698 33.6802 23.5656 33.5946 23.5678H30.6176C30.5504 23.5678 30.4832 23.5678 30.4078 23.5824C30.3385 24.0165 30.2671 24.4425 30.1959 24.8769Z" fill="#5D30C3"/>
<path d="M79.1727 21.9802H86.354C86.2681 22.5102 86.1864 23.0193 86.1024 23.5553H81.0672C81.0169 23.8795 80.9687 24.1891 80.914 24.5362H85.8421C85.7542 25.0971 85.6702 25.6187 85.5841 26.1589H80.6477C80.5847 26.5309 80.526 26.8842 80.4608 27.2665H85.5946C85.5086 27.8171 85.4269 28.3387 85.3407 28.8789H78.0692C78.4364 26.5787 78.8035 24.2889 79.1727 21.9802Z" fill="#5D30C3"/>
<path d="M63.1171 21.9885C63.0415 22.4705 62.964 22.9424 62.8948 23.414C62.8738 23.5553 62.7919 23.5615 62.6849 23.5615H57.826C57.7758 23.8836 57.7253 24.1975 57.6709 24.5424H62.599C62.5086 25.1013 62.4248 25.6269 62.3387 26.1651H57.4128L57.226 27.2644H62.3514C62.2653 27.8233 62.1835 28.3511 62.0996 28.8893H54.8323C54.933 28.266 55.0294 27.6613 55.1259 27.0545C55.3862 25.4213 55.6455 23.7895 55.9043 22.1589C55.9273 22.0176 55.9798 21.9678 56.1309 21.9678C58.4023 21.9678 60.6751 21.9678 62.9493 21.9678C63.0056 21.9711 63.0617 21.978 63.1171 21.9885Z" fill="#5D30C3"/>
<path d="M18.1179 24.6856C17.3941 24.6856 16.685 24.6856 15.9759 24.6856C15.9456 24.6785 15.9176 24.6644 15.8942 24.644C15.8708 24.6238 15.8527 24.5982 15.8416 24.5693C15.7922 24.4047 15.7041 24.2542 15.5844 24.1298C15.4648 24.0056 15.3171 23.9113 15.1535 23.8545C14.8607 23.7284 14.5525 23.6411 14.2367 23.5947C13.4268 23.5035 12.6149 23.5013 11.8471 23.8545C11.3892 24.0667 11.0332 24.4478 10.8553 24.9165C10.6773 25.3851 10.6914 25.9042 10.8946 26.3625C11.001 26.5856 11.1601 26.7802 11.3584 26.9295C11.5567 27.0789 11.7883 27.1787 12.0338 27.2207C12.8946 27.4396 13.8023 27.3924 14.6353 27.0856C15.0617 26.9395 15.4134 26.6336 15.615 26.2338C15.6299 26.2056 15.651 26.1815 15.6768 26.1627C15.7027 26.144 15.7325 26.1313 15.764 26.1256C16.4731 26.1256 17.1822 26.1256 17.9123 26.1256C17.864 26.5653 17.712 26.9876 17.4686 27.3584C17.2251 27.7291 16.897 28.0378 16.5108 28.2598C15.788 28.6849 14.9714 28.9287 14.1318 28.9704C13.0702 29.0576 12.0086 29.0784 10.9659 28.802C9.88548 28.5175 9.02111 27.946 8.65817 26.8613C8.13998 25.3029 8.59103 23.1211 10.7918 22.3065C11.3403 22.1029 11.914 21.9736 12.4974 21.922C13.815 21.8182 15.1367 21.7995 16.4101 22.2525C17.1738 22.5225 17.7717 22.9715 18.0487 23.7569C18.1582 24.0542 18.1821 24.3758 18.1179 24.6856Z" fill="#5D30C3"/>
<path d="M27.0908 28.8956C26.3923 28.8956 25.7042 28.8956 25.0182 28.8956C24.9615 28.8956 24.8775 28.8145 24.8523 28.7544C24.7264 28.4467 24.6097 28.1351 24.502 27.8193C24.4989 27.7909 24.4901 27.7634 24.4759 27.7385C24.4617 27.7136 24.4426 27.692 24.4194 27.6749C24.3964 27.6576 24.3701 27.6455 24.3421 27.6389C24.3141 27.6322 24.2848 27.6314 24.2565 27.6364C22.9978 27.6364 21.7242 27.6364 20.4593 27.6364C20.4098 27.6424 20.3621 27.6584 20.3192 27.6835C20.2761 27.7084 20.239 27.742 20.2095 27.7818C19.9998 28.1018 19.79 28.4384 19.5802 28.7625C19.5583 28.7951 19.5297 28.8227 19.4966 28.8438C19.4633 28.8649 19.4261 28.8789 19.3873 28.8853C18.7095 28.8853 18.0298 28.8853 17.3207 28.8853C17.3647 28.8062 17.392 28.746 17.4277 28.6898C18.8194 26.5191 20.2075 24.3456 21.5921 22.1693C21.6221 22.1082 21.6699 22.0573 21.7294 22.0231C21.7888 21.9891 21.8571 21.9735 21.9258 21.9782C22.7062 21.9782 23.4865 21.9782 24.2692 21.9782C24.3866 21.9782 24.4788 21.9907 24.5188 22.1216C25.3692 24.3587 26.2231 26.5918 27.0803 28.8207C27.0864 28.8453 27.0899 28.8704 27.0908 28.8956ZM22.8949 23.4805L21.2837 26.0571H23.8432C23.5307 25.2053 23.2244 24.374 22.8949 23.4805Z" fill="#5D30C3"/>
<path d="M72.9502 27.1605H77.6225C77.5301 27.7507 77.4421 28.3116 77.3519 28.8831H70.5103C70.8796 26.5765 71.2474 24.2764 71.6138 21.9824H73.7811C73.5041 23.7049 73.2315 25.4089 72.9502 27.1605Z" fill="#5D30C3"/>
<path d="M65.3934 27.1605H70.0697C69.9775 27.7444 69.8893 28.3055 69.7991 28.8811H62.9577C63.0352 28.3762 63.1087 27.8816 63.1884 27.3891C63.4164 25.9553 63.6465 24.5222 63.8786 23.0898C63.9291 22.7782 63.9688 22.4665 64.0318 22.1527C64.0443 22.0842 64.1304 21.9782 64.1829 21.9762C64.8542 21.9658 65.5235 21.9762 66.2243 21.9762C65.9472 23.7029 65.6744 25.4109 65.3934 27.1605Z" fill="#5D30C3"/>
</svg>
