<svg width="95" height="31" viewBox="0 0 95 31" fill="none" xmlns="http://www.w3.org/2000/svg">
<path fill-rule="evenodd" clip-rule="evenodd" d="M62.3904 9.28795L62.4025 9.29868L62.4046 9.30503L62.3904 9.28795ZM62.3904 9.28795C58.4244 5.7672 53.4034 3.58846 48.2312 2.64422C39.4809 1.01675 30.8624 3.56054 22.4557 6.0418L22.4557 6.04182C20.7153 6.55551 18.984 7.06652 17.2624 7.53727C16.6086 7.73916 15.9542 7.94657 15.2986 8.15438L15.2985 8.15442L15.2984 8.15442C11.7378 9.28298 8.14058 10.4231 4.39881 10.7535C3.78374 10.8255 3.11519 10.8799 2.4601 10.9261L2.88418 12.3986C3.55161 14.7181 4.32514 17.5402 4.95963 19.9114C7.74223 20.0805 10.6372 20.2804 13.4162 20.5057C10.4104 20.6347 7.29152 20.7489 4.28787 20.8081C4.02363 20.0957 3.70875 19.2838 3.38953 18.4606C2.98202 17.4098 2.56744 16.3407 2.24207 15.4372C2.09099 15.0274 1.9209 14.5674 1.74101 14.0809L1.74097 14.0808L1.74083 14.0804L1.74076 14.0802L1.74069 14.08L1.74067 14.08L1.74056 14.0797C1.15852 12.5056 0.474117 10.6547 0 9.3304C0.249915 9.29723 0.502575 9.26412 0.757318 9.23073L0.75734 9.23072C2.82494 8.95971 5.0297 8.67072 7.01633 8.19066C9.16856 7.69293 11.2335 6.97802 13.3282 6.2528C14.3749 5.89043 15.429 5.52549 16.5051 5.18379C18.9904 4.357 21.7444 3.56405 24.283 2.87893C24.794 2.74831 25.3076 2.61535 25.8236 2.48179L25.8237 2.48176C30.5612 1.25529 35.4944 -0.021836 40.3807 0.00104642C48.5417 -0.0644457 57.1052 2.94332 62.3904 9.28795ZM81.0164 19.5406C83.7847 20.5437 85.4403 23.5811 84.8796 26.3727H84.8729C84.1238 24.3557 83.0998 22.7608 81.3267 21.8687C79.0926 20.8483 75.9653 20.8961 73.9949 22.3714C72.8158 23.2526 71.9026 24.6451 71.2377 26.2487C71.166 25.8114 71.1496 25.367 71.1889 24.9258C71.2913 23.5244 71.8544 22.1935 72.7936 21.1333C74.7928 18.9053 78.2481 18.5375 81.0164 19.5406ZM38.1987 3.82168L38.1336 3.88547C35.4085 5.77922 32.562 9.49878 36.2037 12.0395C39.3017 14.0476 49.298 13.6303 55.0604 13.3898C55.9911 13.3509 56.8113 13.3167 57.4742 13.298C59.9834 13.2039 62.4916 13.06 64.9989 12.9163C71.3721 12.5508 77.7396 12.1857 84.1039 12.6373C85.7732 12.8009 87.3892 13.0526 88.9073 13.7028C91.6838 14.869 93.6405 17.4699 94.1771 20.3833C94.1169 18.8137 93.6435 17.2866 92.8032 15.9517C91.963 14.6169 90.7848 13.5202 89.3843 12.7695C86.7207 11.3683 83.4949 11.037 80.4204 10.7853C73.4634 10.335 66.4645 10.728 59.5234 11.1178L59.522 11.1179L59.5207 11.118L59.5193 11.1181L59.518 11.1181L59.5166 11.1182C58.7976 11.1586 58.0791 11.199 57.3614 11.2383C56.2436 11.299 55.1245 11.3659 54.0045 11.4329L54.0045 11.4329C50.0492 11.6696 46.0846 11.9068 42.142 11.8676C40.9035 11.8632 39.6672 11.7665 38.4436 11.5781C37.8821 11.4979 37.3377 11.3278 36.8318 11.0747C33.5744 9.31689 36.2918 5.70098 38.1336 3.88547L38.1987 3.84055V3.82168ZM28.6469 26.9682H29.8079C29.9057 26.9666 30.0027 26.9845 30.0933 27.0209C30.1839 27.0572 30.2662 27.1113 30.3352 27.1799C30.4042 27.2484 30.4586 27.33 30.495 27.4199C30.5314 27.5097 30.5492 27.6059 30.5472 27.7027V28.7107C30.5489 28.8073 30.5309 28.9032 30.4943 28.9928C30.4577 29.0823 30.4033 29.1637 30.3343 29.232C30.2654 29.3003 30.1832 29.3542 30.0928 29.3904C30.0023 29.4266 29.9055 29.4444 29.8079 29.4428H25.6024H25.5031H20.2432C19.3866 29.4415 18.5656 29.104 17.9599 28.5043C17.3542 27.9046 17.0134 27.0915 17.0121 26.2434V21.035C17.0134 20.1869 17.3542 19.3738 17.9599 18.7741C18.5656 18.1744 19.3866 17.8369 20.2432 17.8356H25.5031C26.3596 17.8369 27.1807 18.1744 27.7864 18.7741C28.392 19.3738 28.7328 20.1869 28.7341 21.035V26.2482C28.7332 26.4907 28.704 26.7324 28.6469 26.9682ZM19.5112 21.035V26.2434C19.5112 26.4343 19.5878 26.6175 19.7241 26.7525C19.8605 26.8876 20.0455 26.9634 20.2383 26.9634H25.4982C25.6911 26.9634 25.876 26.8876 26.0124 26.7525C26.1488 26.6175 26.2254 26.4343 26.2254 26.2434V21.035C26.2254 20.8441 26.1488 20.6609 26.0124 20.5259C25.876 20.3908 25.6911 20.315 25.4982 20.315H20.2383C20.0455 20.315 19.8605 20.3908 19.7241 20.5259C19.5878 20.6609 19.5112 20.8441 19.5112 21.035ZM50.2817 22.4545C50.0095 21.8665 49.6106 21.3698 49.0632 21.0179C48.5256 20.6858 47.9026 20.5151 47.2694 20.5263C46.7055 20.5099 46.1488 20.6557 45.6665 20.946C45.2311 21.216 44.8927 21.6156 44.6995 22.0876V21.3465C44.6995 21.1557 44.6231 20.9727 44.4871 20.8377C44.3511 20.7028 44.1666 20.627 43.9742 20.627H42.9177C42.7254 20.627 42.5409 20.7028 42.4049 20.8377C42.2689 20.9727 42.1925 21.1557 42.1925 21.3465V22.09V27.2416V30.2684C42.1909 30.3639 42.2084 30.4587 42.2442 30.5474C42.2799 30.6361 42.3331 30.7168 42.4006 30.7849C42.4681 30.853 42.5486 30.9071 42.6374 30.944C42.7262 30.9809 42.8215 30.9999 42.9177 30.9999H43.9331C44.0294 30.9999 44.1247 30.9809 44.2135 30.944C44.3023 30.9071 44.3828 30.853 44.4503 30.7849C44.5178 30.7168 44.571 30.6361 44.6067 30.5474C44.6424 30.4587 44.66 30.3639 44.6584 30.2684V27.2345C44.8521 27.7068 45.1904 28.1069 45.6254 28.3785C46.1082 28.6678 46.6645 28.8134 47.2283 28.7982C47.8641 28.8073 48.4889 28.6332 49.027 28.2969C49.5743 27.945 50.0095 27.4459 50.2817 26.8579C50.5846 26.1628 50.7409 25.4135 50.7409 24.6562C50.7409 23.8989 50.5846 23.1496 50.2817 22.4545ZM47.7529 26.1072C47.4081 26.4432 46.9434 26.6302 46.4601 26.6276C45.9769 26.6249 45.5143 26.4326 45.1733 26.0928C44.8773 25.7606 44.7065 25.3368 44.6898 24.8937V24.414C44.7047 23.9705 44.8757 23.5461 45.1733 23.2148C45.5174 22.8792 45.9806 22.6912 46.4631 22.6912C46.9456 22.6912 47.4088 22.8792 47.7529 23.2148C48.0702 23.6312 48.2419 24.139 48.2419 24.661C48.2419 25.183 48.0702 25.6908 47.7529 26.1072ZM40.0025 21.3972V24.3162H40.0049V28.1715V28.7103C40.0049 28.9047 39.9264 29.091 39.7867 29.2285C39.647 29.3659 39.4574 29.4431 39.2598 29.4431H38.2202C38.0226 29.4431 37.8331 29.3659 37.6934 29.2285C37.5536 29.091 37.4752 28.9047 37.4752 28.7103V27.8866C37.2434 28.349 36.8806 28.7357 36.4306 29.0001C35.9407 29.2864 35.3788 29.4316 34.8091 29.4191C34.3898 29.4376 33.9716 29.3643 33.5846 29.2044C33.1977 29.0446 32.8516 28.8022 32.5715 28.4948C32.018 27.8786 31.7413 27.0317 31.7413 25.9541V24.8095V24.7951V21.3972C31.7413 21.2067 31.8182 21.0239 31.9552 20.8892C32.0922 20.7545 32.278 20.6788 32.4717 20.6788H33.4919C33.6856 20.6788 33.8714 20.7545 34.0084 20.8892C34.1453 21.0239 34.2223 21.2067 34.2223 21.3972V24.7999V24.8263V25.6548C34.1927 26.1202 34.3481 26.5787 34.6557 26.9335C34.8057 27.0869 34.9875 27.2069 35.1887 27.2854C35.3898 27.3639 35.6058 27.399 35.8219 27.3885C36.0481 27.4006 36.2742 27.364 36.4844 27.2813C36.6947 27.1986 36.8841 27.0717 37.0393 26.9096C37.3315 26.5547 37.4852 26.1089 37.4727 25.6524V21.3996C37.4727 21.2053 37.5512 21.0189 37.6909 20.8815C37.8307 20.744 38.0202 20.6668 38.2178 20.6668H39.2574C39.4546 20.6668 39.6437 20.7437 39.7834 20.8806C39.923 21.0175 40.0018 21.2033 40.0025 21.3972ZM57.8787 20.6665H57.8097C57.2838 20.6668 56.7696 20.8166 56.3313 21.0972C55.8293 21.3822 55.4064 21.7808 55.0992 22.2585V21.4589C55.0992 21.2696 55.0213 21.088 54.8827 20.9541C54.7441 20.8203 54.556 20.745 54.36 20.745H53.3127C53.1167 20.745 52.9286 20.8203 52.79 20.9541C52.6514 21.088 52.5735 21.2696 52.5735 21.4589V28.7169V28.7407V28.7598C52.5818 28.9437 52.6633 29.1174 52.801 29.2447C52.9388 29.372 53.1221 29.4429 53.3127 29.4427H54.3526C54.5432 29.4429 54.7265 29.372 54.8643 29.2447C55.002 29.1174 55.0835 28.9437 55.0918 28.7598V25.0975C55.0918 24.4454 55.2815 23.9838 55.6487 23.7077C56.1092 23.4058 56.6602 23.2594 57.2159 23.2913H57.8689C57.9384 23.2907 58.0048 23.2636 58.0537 23.2159C58.1026 23.1682 58.1301 23.1038 58.1301 23.0367V20.9211C58.1301 20.8556 58.1041 20.7926 58.0573 20.7452C58.0104 20.6977 57.9465 20.6696 57.8787 20.6665ZM67.5218 22.8309C67.1612 22.1911 66.6249 21.6692 65.9771 21.3278C65.2816 20.9858 64.5176 20.808 63.7434 20.808C62.9692 20.808 62.2052 20.9858 61.5097 21.3278C60.8583 21.6671 60.3188 22.1893 59.9567 22.8309C59.5869 23.5385 59.3937 24.3259 59.3937 25.1253C59.3937 25.9247 59.5869 26.7121 59.9567 27.4197C60.3182 28.0613 60.858 28.5829 61.5097 28.9207C62.2048 29.2641 62.969 29.4427 63.7434 29.4427C64.5179 29.4427 65.282 29.2641 65.9771 28.9207C66.6253 28.5808 67.1617 28.0595 67.5218 27.4197C67.8916 26.7121 68.0848 25.9247 68.0848 25.1253C68.0848 24.3259 67.8916 23.5385 67.5218 22.8309ZM62.0059 25.1243C62.0059 24.4514 62.1726 23.9336 62.5083 23.5772C62.6651 23.4046 62.8566 23.2675 63.0701 23.175C63.2835 23.0825 63.5141 23.0367 63.7465 23.0405C63.9781 23.0363 64.2079 23.0821 64.4204 23.1746C64.6329 23.2672 64.8232 23.4045 64.9786 23.5772C65.3079 23.9336 65.4726 24.4514 65.4726 25.1243C65.4726 25.7993 65.3079 26.3129 64.9786 26.6651C64.8222 26.8359 64.6315 26.9714 64.4191 27.0625C64.2067 27.1536 63.9774 27.1982 63.7465 27.1933C63.5148 27.1979 63.2847 27.1532 63.0713 27.0621C62.858 26.9711 62.6661 26.8358 62.5083 26.6651C62.1726 26.3129 62.0059 25.7972 62.0059 25.1243Z" fill="#5D30C3"/>
</svg>
