<svg width="24" height="24" viewBox="0 0 24 24" fill="none" xmlns="http://www.w3.org/2000/svg">
<path fill-rule="evenodd" clip-rule="evenodd" d="M17.5557 20.3147C15.9112 21.4135 13.9778 22 12 22C10.6868 22 9.38642 21.7413 8.17317 21.2388C6.95991 20.7363 5.85752 19.9997 4.92893 19.0711C3.05357 17.1957 2 14.6522 2 12C2 10.0222 2.58649 8.08879 3.6853 6.4443C4.78412 4.79981 6.3459 3.51809 8.17317 2.76121C10.0004 2.00433 12.0111 1.8063 13.9509 2.19215C15.8907 2.578 17.6725 3.53041 19.0711 4.92894C20.4696 6.32746 21.422 8.10929 21.8079 10.0491C22.1937 11.9889 21.9957 13.9996 21.2388 15.8268C20.4819 17.6541 19.2002 19.2159 17.5557 20.3147ZM16.1745 9.24553L13.41 12L16.1745 14.7545C16.2682 14.8474 16.3426 14.958 16.3934 15.0799C16.4442 15.2017 16.4703 15.3324 16.4703 15.4645C16.4703 15.5965 16.4442 15.7272 16.3934 15.849C16.3426 15.9709 16.2682 16.0815 16.1745 16.1745C16.0816 16.2682 15.971 16.3426 15.8491 16.3933C15.7272 16.4441 15.5965 16.4703 15.4645 16.4703C15.3325 16.4703 15.2018 16.4441 15.0799 16.3933C14.9581 16.3426 14.8475 16.2682 14.7545 16.1745L12 13.41L9.24558 16.1745C9.15262 16.2682 9.04202 16.3426 8.92016 16.3934C8.7983 16.4441 8.6676 16.4703 8.53558 16.4703C8.40357 16.4703 8.27287 16.4441 8.15101 16.3934C8.02915 16.3426 7.91855 16.2682 7.82558 16.1745C7.73186 16.0815 7.65746 15.9709 7.60669 15.849C7.55592 15.7272 7.52979 15.5965 7.52979 15.4645C7.52979 15.3324 7.55592 15.2017 7.60669 15.0799C7.65746 14.958 7.73186 14.8474 7.82558 14.7545L10.59 12L7.82558 9.24552C7.63728 9.05722 7.53149 8.80183 7.53149 8.53552C7.53149 8.26922 7.63728 8.01383 7.82558 7.82552C8.01389 7.63722 8.26928 7.53143 8.53558 7.53143C8.80189 7.53143 9.05728 7.63722 9.24558 7.82552L12 10.59L14.7545 7.82553C14.9428 7.63722 15.1982 7.53143 15.4645 7.53143C15.7308 7.53143 15.9862 7.63722 16.1745 7.82553C16.3628 8.01383 16.4686 8.26922 16.4686 8.53553C16.4686 8.80183 16.3628 9.05722 16.1745 9.24553Z" fill="#DBD9E0"/>
</svg>
