<svg width="24" height="24" viewBox="0 0 24 24" fill="none" xmlns="http://www.w3.org/2000/svg">
<path d="M14.5536 18.0464L14.5504 18.0433L8.87371 12.4662C8.74853 12.3017 8.70001 12.1423 8.70001 12C8.70001 11.8577 8.74853 11.6982 8.87371 11.5338L14.5504 5.95666L14.5504 5.95667L14.5536 5.95354C14.624 5.88306 14.6747 5.85008 14.7156 5.83189C14.7543 5.81467 14.8084 5.79999 14.9 5.79999C14.9917 5.79999 15.0457 5.81467 15.0844 5.83189C15.1254 5.85008 15.176 5.88306 15.2465 5.95354C15.4512 6.15828 15.4512 6.4417 15.2465 6.64643L15.2464 6.64642L15.2429 6.65002L10.3429 11.65L9.99994 12L10.3429 12.35L15.2429 17.35L15.2429 17.35L15.2465 17.3535C15.4512 17.5583 15.4512 17.8417 15.2465 18.0464C15.0417 18.2512 14.7583 18.2512 14.5536 18.0464Z" fill="#DBD9E0" stroke="black"/>
</svg>
