<svg width="24" height="24" viewBox="0 0 24 24" fill="none" xmlns="http://www.w3.org/2000/svg">
<path d="M12 2C10.0222 2 8.08879 2.58649 6.4443 3.6853C4.79981 4.78412 3.51809 6.3459 2.76121 8.17317C2.00433 10.0004 1.8063 12.0111 2.19215 13.9509C2.578 15.8907 3.53041 17.6725 4.92894 19.0711C6.32746 20.4696 8.10929 21.422 10.0491 21.8079C11.9889 22.1937 13.9996 21.9957 15.8268 21.2388C17.6541 20.4819 19.2159 19.2002 20.3147 17.5557C21.4135 15.9112 22 13.9778 22 12C22 10.6868 21.7413 9.38642 21.2388 8.17317C20.7363 6.95991 19.9997 5.85752 19.0711 4.92893C18.1425 4.00035 17.0401 3.26375 15.8268 2.7612C14.6136 2.25866 13.3132 2 12 2ZM12 20C10.4178 20 8.87104 19.5308 7.55544 18.6518C6.23985 17.7727 5.21447 16.5233 4.60897 15.0615C4.00347 13.5997 3.84504 11.9911 4.15372 10.4393C4.4624 8.88743 5.22433 7.46197 6.34315 6.34315C7.46197 5.22433 8.88743 4.4624 10.4393 4.15372C11.9911 3.84504 13.5997 4.00346 15.0615 4.60896C16.5233 5.21447 17.7727 6.23984 18.6518 7.55544C19.5308 8.87103 20 10.4177 20 12C20 14.1217 19.1572 16.1566 17.6569 17.6569C16.1566 19.1571 14.1217 20 12 20Z" fill="#D05050"/>
<path d="M12 10.5858L14.1213 8.46447C14.3089 8.27693 14.5632 8.17157 14.8284 8.17157C15.0936 8.17157 15.348 8.27693 15.5355 8.46447C15.7231 8.652 15.8284 8.90636 15.8284 9.17157C15.8284 9.43679 15.7231 9.69114 15.5355 9.87868L13.4142 12L15.5355 14.1213C15.7231 14.3089 15.8284 14.5632 15.8284 14.8284C15.8284 15.0936 15.7231 15.348 15.5355 15.5355C15.348 15.7231 15.0936 15.8284 14.8284 15.8284C14.5632 15.8284 14.3089 15.7231 14.1213 15.5355L12 13.4142L9.87868 15.5355C9.69115 15.7231 9.43679 15.8284 9.17158 15.8284C8.90636 15.8284 8.65201 15.7231 8.46447 15.5355C8.27693 15.348 8.17158 15.0936 8.17158 14.8284C8.17158 14.5632 8.27693 14.3089 8.46447 14.1213L10.5858 12L8.46447 9.87868C8.27693 9.69114 8.17158 9.43679 8.17158 9.17157C8.17158 8.90636 8.27693 8.652 8.46447 8.46447C8.65201 8.27693 8.90636 8.17157 9.17158 8.17157C9.43679 8.17157 9.69115 8.27693 9.87868 8.46447L12 10.5858Z" fill="#D05050"/>
</svg>
