<svg width="24" height="24" viewBox="0 0 24 24" fill="none" xmlns="http://www.w3.org/2000/svg">
<g clip-path="url(#clip0_327_2956)">
<path d="M22.3393 9.31637L8.33927 2.31436C7.78676 2.03929 7.16289 1.94136 6.55271 2.03393C5.94252 2.1265 5.37573 2.40506 4.9296 2.83162C4.48347 3.25819 4.17972 3.81201 4.05976 4.41757C3.9398 5.02313 4.00947 5.65097 4.25927 6.21548L6.65927 11.587C6.71373 11.7169 6.74177 11.8563 6.74177 11.9971C6.74177 12.138 6.71373 12.2774 6.65927 12.4073L4.25927 17.7788C4.05597 18.2356 3.97003 18.7361 4.00925 19.2346C4.04847 19.7331 4.21161 20.2139 4.48385 20.6333C4.75609 21.0527 5.1288 21.3974 5.56809 21.6361C6.00739 21.8748 6.49935 21.9999 6.99927 22C7.4675 21.9953 7.92876 21.886 8.34927 21.6799L22.3493 14.6779C22.8459 14.428 23.2633 14.045 23.555 13.5717C23.8466 13.0983 24.0011 12.5532 24.0011 11.9971C24.0011 11.4411 23.8466 10.896 23.555 10.4226C23.2633 9.94924 22.8459 9.56625 22.3493 9.31637H22.3393ZM21.4493 12.8874L7.44927 19.8894C7.26543 19.9777 7.059 20.0077 6.85766 19.9753C6.65631 19.9429 6.46968 19.8497 6.32278 19.7082C6.17589 19.5667 6.07575 19.3837 6.0358 19.1836C5.99585 18.9836 6.018 18.7761 6.09927 18.589L8.48927 13.2175C8.52021 13.1458 8.54692 13.0723 8.56927 12.9974H15.4593C15.7245 12.9974 15.9788 12.892 16.1664 12.7044C16.3539 12.5169 16.4593 12.2624 16.4593 11.9971C16.4593 11.7318 16.3539 11.4774 16.1664 11.2898C15.9788 11.1022 15.7245 10.9968 15.4593 10.9968H8.56927C8.54692 10.922 8.52021 10.8485 8.48927 10.7768L6.09927 5.40524C6.018 5.21815 5.99585 5.01068 6.0358 4.81064C6.07575 4.61061 6.17589 4.42757 6.32278 4.28607C6.46968 4.14458 6.65631 4.05139 6.85766 4.019C7.059 3.98661 7.26543 4.01658 7.44927 4.10487L21.4493 11.1069C21.6131 11.1908 21.7505 11.3184 21.8465 11.4754C21.9425 11.6325 21.9933 11.813 21.9933 11.9971C21.9933 12.1812 21.9425 12.3618 21.8465 12.5188C21.7505 12.6759 21.6131 12.8034 21.4493 12.8874Z" fill="#98969E"/>
</g>
<defs>
<clipPath id="clip0_327_2956">
<rect width="24" height="24" fill="white"/>
</clipPath>
</defs>
</svg>
