<svg width="20" height="20" viewBox="0 0 20 20" fill="none" xmlns="http://www.w3.org/2000/svg">
<path d="M10.8321 17.5007V5.83403C10.8321 5.61302 10.9198 5.40105 11.076 5.24477C11.2322 5.08849 11.444 5.0007 11.6648 5.0007C11.8857 5.0007 12.0975 5.08849 12.2537 5.24477C12.4098 5.40105 12.4976 5.61302 12.4976 5.83403V15.4924L14.4046 13.5757C14.482 13.4976 14.5741 13.4356 14.6756 13.3933C14.777 13.351 14.8859 13.3292 14.9958 13.3292C15.1058 13.3292 15.2146 13.351 15.3161 13.3933C15.4175 13.4356 15.5097 13.4976 15.5871 13.5757C15.6651 13.6532 15.7271 13.7453 15.7693 13.8469C15.8116 13.9484 15.8334 14.0574 15.8334 14.1674C15.8334 14.2774 15.8116 14.3863 15.7693 14.4878C15.7271 14.5894 15.6651 14.6816 15.5871 14.759L12.2561 18.0924C12.139 18.208 11.9903 18.2863 11.8287 18.3175C11.6672 18.3486 11.5 18.3312 11.3484 18.2674C11.1963 18.2048 11.0661 18.0987 10.9743 17.9622C10.8824 17.8258 10.8329 17.6652 10.8321 17.5007Z" fill="#98969E"/>
<path d="M7.74257 1.90904L4.41159 5.24237C4.33395 5.32007 4.27236 5.41231 4.23034 5.51383C4.18831 5.61535 4.16669 5.72415 4.16669 5.83403C4.16669 6.05595 4.25478 6.26878 4.41159 6.4257C4.5684 6.58262 4.78108 6.67078 5.00284 6.67078C5.2246 6.67078 5.43728 6.58262 5.59409 6.4257L7.50107 4.50903V14.1674C7.50107 14.3884 7.58881 14.6003 7.74498 14.7566C7.90115 14.9129 8.11296 15.0007 8.33382 15.0007C8.55468 15.0007 8.76649 14.9129 8.92266 14.7566C9.07883 14.6003 9.16657 14.3884 9.16657 14.1674V2.5007C9.16574 2.33618 9.11628 2.17558 9.0244 2.03915C8.93252 1.90272 8.80234 1.79655 8.65026 1.73403C8.49861 1.67022 8.33147 1.65278 8.16992 1.68393C8.00838 1.71507 7.85967 1.7934 7.74257 1.90904Z" fill="#98969E"/>
</svg>
