<svg width="14" height="14" viewBox="0 0 14 14" fill="none" xmlns="http://www.w3.org/2000/svg">
<path d="M6.04895 1.59371C6.34831 0.672396 7.65172 0.672396 7.95107 1.59371L8.83354 4.30968C8.96742 4.72171 9.35137 5.00067 9.7846 5.00067H12.6403C13.6091 5.00067 14.0118 6.24028 13.2281 6.80968L10.9178 8.48825C10.5673 8.7429 10.4206 9.19426 10.5545 9.60629L11.437 12.3223C11.7363 13.2436 10.6819 14.0097 9.89814 13.4403L7.5878 11.7617C7.23731 11.5071 6.76271 11.5071 6.41222 11.7617L4.10188 13.4403C3.31816 14.0097 2.26368 13.2436 2.56304 12.3223L3.44551 9.60629C3.57938 9.19426 3.43273 8.7429 3.08224 8.48825L0.77189 6.80968C-0.0118237 6.24028 0.390952 5.00067 1.35968 5.00067H4.21542C4.64865 5.00067 5.0326 4.72171 5.16648 4.30968L6.04895 1.59371Z" fill="#F7D757"/>
</svg>
