<svg width="6" height="14" viewBox="0 0 6 14" fill="none" xmlns="http://www.w3.org/2000/svg">
<path d="M3.74263 0.909036L0.411651 4.24237C0.334008 4.32007 0.272417 4.41231 0.230397 4.51383C0.188376 4.61535 0.166748 4.72415 0.166748 4.83403C0.166748 5.05595 0.254842 5.26878 0.411651 5.4257C0.56846 5.58262 0.781139 5.67078 1.0029 5.67078C1.22466 5.67078 1.43734 5.58262 1.59415 5.4257L3.50114 3.50903L3.50114 13.1674C3.50114 13.3884 3.58887 13.6003 3.74504 13.7566C3.90121 13.9129 4.11302 14.0007 4.33388 14.0007C4.55474 14.0007 4.76655 13.9129 4.92272 13.7566C5.07889 13.6003 5.16663 13.3884 5.16663 13.1674L5.16663 1.5007C5.16581 1.33618 5.11634 1.17558 5.02446 1.03915C4.93258 0.902717 4.8024 0.796552 4.65032 0.734035C4.49867 0.670218 4.33153 0.652783 4.16999 0.683928C4.00844 0.715074 3.85974 0.793404 3.74263 0.909036Z" fill="#98969E"/>
</svg>
