<svg width="6" height="14" viewBox="0 0 6 14" fill="none" xmlns="http://www.w3.org/2000/svg">
<path d="M0.832031 12.5007L0.832031 0.83403C0.832031 0.613017 0.919768 0.401054 1.07594 0.244774C1.23211 0.0884943 1.44392 0.000697136 1.66478 0.000697136C1.88563 0.000697136 2.09745 0.0884943 2.25362 0.244774C2.40979 0.401054 2.49752 0.613017 2.49752 0.83403L2.49752 10.4924L4.40451 8.5757C4.48192 8.49759 4.57402 8.4356 4.6755 8.39329C4.77698 8.35098 4.88582 8.3292 4.99576 8.3292C5.10569 8.3292 5.21453 8.35098 5.31601 8.39329C5.41749 8.4356 5.50959 8.49759 5.587 8.5757C5.66506 8.65317 5.72701 8.74533 5.76929 8.84688C5.81156 8.94843 5.83333 9.05735 5.83333 9.16736C5.83333 9.27737 5.81156 9.3863 5.76929 9.48784C5.72701 9.58939 5.66506 9.68156 5.587 9.75903L2.25603 13.0924C2.13892 13.208 1.99022 13.2863 1.82867 13.3175C1.66713 13.3486 1.49999 13.3312 1.34833 13.2674C1.19626 13.2048 1.06608 13.0987 0.974198 12.9622C0.882319 12.8258 0.832852 12.6652 0.832031 12.5007Z" fill="#98969E"/>
</svg>
